HIERARCHY
ROOT Hips
{
	OFFSET	-0.00808106  0.00811328   -0.00228189
	CHANNELS 6 Xposition Yposition Zposition Xrotation Yrotation Zrotation

		End Site
		{
			OFFSET	0.0	0.0	0.0
		}


}


MOTION
Frames:   18
Frame Time: 0.05
0.0   0.0    0.0  135 0 -90
0	-0.0012	0.0001 140 0 -90
0	-0.0024	0.0002 145 0 -90
0	-0.0036	0.0003 150 0 -90
0	-0.0048	0.0004 155 0 -90
0	-0.006	0.0005 160 0 -90
0	-0.0072	0.0006 165 0 -90
0	-0.0084	0.0007 170 0 -90
0	-0.0096	0.0008 175 0 -90
0	-0.0096	0.0008 180 0 -90
0	-0.0096	0.0008 180 0 -90
0	-0.0096	0.0008 180 0 -90
0	-0.0096	0.0008 180 0 -90
0	-0.0096	0.0008 180 0 -90
0	-0.0096	0.0008 180 10 -90
0	-0.0096	0.0008 180 20 -90
0	-0.0096	0.0008 180 30 -90
0	-0.0096	0.0008 180 40 -90
